# xmcd
#
# Track frame offsets:
# 150
# 16826
# 33501
# 46535
# 64754
# 81673
# 97581
# 112642
# 130027
# 152683
# 173657
#
# Disc length: 2505 seconds
#
# Revision: 0
# Processed by: cddbd v1.4PL0 Copyright (c) Steve Scherf et al.
# Submitted via: Axialis_AX_CDPlayer 2.6
#
DISCID=7109c70b
DTITLE=Dylan-Thomas Vance - Cowboy Soul and Country Blues, Vol. 1
DYEAR=1900
DGENRE=
TTITLE0=I'm So Lonesome I Could Cry
TTITLE1=Old Man Devil
TTITLE2=Nine Pound Hammer
TTITLE3=Deva's Song
TTITLE4=Good Thing Goin'
TTITLE5=Sweet Family
TTITLE6=Preachin' Blues
TTITLE7=Mr Franklin
TTITLE8=That's How Strong My Love Is
TTITLE9=Stones In My Passway
TTITLE10=Somewhere Over The Rainbow
EXTD=Dylan-Thomas Vance: Vocals and lap slide guitar.  Kevin Cowen: Acoustic
EXTD=\nBass.  Sean Flora: Engineer, mixing, mastering.  www.dylanthomasvanc
EXTD=e.com
EXTT0=By Hank Williams, Arranged by Dylan-Thomas Vance
EXTT1=By Dylan-Thomas Vance Copyright 2002 BMI
EXTT2=Traditional, Arranged by Dylan-Thomas Vance
EXTT3=By Dylan-Thomas Vance, Copyright 2002 BMI
EXTT4=By Rachel Browning, Copyright 2002, Arranged by Dylan-Thomas Vance
EXTT5=By Dylan-Thomas Vance, Copyright 2002 BMI
EXTT6=By Robert Johnson, Arranged by Dylan-Thomas Vance
EXTT7=By Dylan-Thomas Vance, Copyright 2002 BMI
EXTT8=By Roosevelt Jamison, Arranged by Dylan-Thomas Vance
EXTT9=By Robert Johnson, Arranged by Dylan-Thomas Vance
EXTT10=By Harold Arlen and E.Y. Harburg, Arranged by Dylan-Thomas Vance
PLAYORDER=
